Simulation
nRows=40
nColumns=15
endheader
time  TH_x TH_y TH_z SC_y  SC_z  SC_x  AC_y  AC_z  AC_x  GH_y  GH_z  GH_yy  EL_x  PS_y
5.745  0.000000  0.000000  0.000000  -47.93695211364696  6.771401166541247  5.8873720849832525  47.81878877495685  5.226891901117529  2.3365500685155145  33.34901642454229  78.91805315315491  -38.97383626906812  18.58514134236558  120.000000
5.80245  0.000000  0.000000  0.000000  -47.18968706819029  6.297052490828677  4.772224549202507  47.82538548261772  5.202835069085128  2.5748951837538323  33.1783153693532  75.79928351290818  -38.60020747688647  18.876633649506996  120.000000
5.8599  0.000000  0.000000  0.000000  -46.287035328349084  5.704277024209604  3.1912248439057382  47.75222492931511  5.3022999408579805  2.9718726924196193  32.94475741633143  71.95973644529477  -38.00717551790776  19.26825046260136  120.000000
5.91735  0.000000  0.000000  0.000000  -45.25563002501249  5.006996070708922  1.227232949318769  47.58088776927737  5.541917853371465  3.5007306366990045  32.59195905113578  67.50334338278265  -37.20554998358958  19.67055453912339  120.000000
5.9748  0.000000  0.000000  0.000000  -44.12133453520707  4.228377701162742  -1.0126480283389683  47.3093092602411  5.934005691684606  4.135449995510447  32.0785689646878  62.56698914301381  -36.1986204609274  19.975096610057975  120.000000
6.03225  0.000000  0.000000  0.000000  -42.909506721333294  3.397365495123818  -3.4085749649624404  46.95852712642483  6.480449332572357  4.854009254116824  31.38791752628939  57.31287401705504  -34.99209820995712  20.087759429440258  120.000000
6.089700000000001  0.000000  0.000000  0.000000  -41.65115731330643  2.5435227032542786  -5.839711988027952  46.57231272082156  7.170819426987777  5.6386714531186355  30.534094413508434  51.91730314600335  -33.605324363457036  19.95745807648578  120.000000
6.14715  0.000000  0.000000  0.000000  -40.39169395107036  1.6957362777169342  -8.193370568856132  46.20922455889827  7.984453838069309  6.471663098533464  29.56392314148371  46.557258969845755  -32.07953832838565  19.584109615811204  120.000000
6.2046  0.000000  0.000000  0.000000  -39.19334049126283  0.8842058596975128  -10.371852522386082  45.92965043992954  8.893406390997436  7.3317287686433765  28.557878683948957  41.39468926411729  -30.48229168172228  19.00513987435929  120.000000
6.26205  0.000000  0.000000  0.000000  -38.12752103668073  0.14144258769166668  -12.29826296437998  45.782174700675775  9.862165985361862  8.193515280460101  27.62930704108342  36.55913691703659  -28.905625480825893  18.278992731702008  120.000000
6.3195  0.000000  0.000000  0.000000  -37.25661955865818  -0.4986737690004611  -13.92010106817525  45.79441665634575  10.846755441648366  9.03144202410029  26.919824724800833  32.13490853510082  -27.457898515590685  17.47853601931609  120.000000
6.37695  0.000000  0.000000  0.000000  -36.6147749454843  -1.005903984386092  -15.20809198243349  45.97054838873277  11.797745770187786  9.824704267868889  26.58490159336939  28.159983028482866  -26.250770581426178  16.687511632814015  120.000000
6.4344  0.000000  0.000000  0.000000  -36.202473094629326  -1.3603904870408141  -16.15400107983725  46.292447418157565  12.667899552118381  10.556735336208213  26.76346739923162  24.634847652096553  -25.380256083732107  15.992577100772497  120.000000
6.49185  0.000000  0.000000  0.000000  -35.9942871275361  -1.5568383321813424  -16.76845253183916  46.725769469574956  13.41923241769972  11.211248920131972  27.5453233715149  21.535962395440208  -24.911113124553598  15.469005620155253  120.000000
6.549300000000001  0.000000  0.000000  0.000000  -35.95132920289601  -1.6060037223355892  -17.07760007972708  47.22920084279542  14.02723490617271  11.770269488552367  28.95691900167464  18.82952795198921  -24.877616436454492  15.165429609352337  120.000000
6.60675  0.000000  0.000000  0.000000  -36.032808417564034  -1.5312910523999066  -17.117896553801295  47.76157876441482  14.481840231208068  12.216495850456967  30.968480633568415  16.48190139944836  -25.2963746959482  15.09609424928104  120.000000
6.6642  0.000000  0.000000  0.000000  -36.20345199366298  -1.3637399455046821  -16.930572437434428  48.28355763350506  14.785925095486435  12.537161993215308  33.50250390266763  14.462417933473848  -26.166939286032633  15.244926257089093  120.000000
6.72165  0.000000  0.000000  0.000000  -36.433460878775875  -1.1374043031277628  -16.558679211168656  48.759190113627916  14.951931184122857  12.724463378605353  36.4291714105151  12.738351298261266  -27.448534431562468  15.573035661191595  120.000000
6.7791  0.000000  0.000000  0.000000  -36.695248412303314  -0.8846012983255152  -16.045223978037974  49.16313948459506  14.997069577963616  12.775328532948446  39.57584900771141  11.271039621804242  -29.046855310719476  16.022083291872722  120.000000
6.83655  0.000000  0.000000  0.000000  -36.95973003411938  -0.6356314424799305  -15.430618996550226  49.4866198327337  14.936903411175942  12.695504030176103  42.770642881281134  10.017305804091425  -30.84030197235655  16.51579350725676  120.000000
6.894  0.000000  0.000000  0.000000  -37.19727217916904  -0.4169647853385666  -14.751366748460464  49.736507803157856  14.78154610364627  12.501434052115437  45.892607502840654  8.934937644925487  -32.727208503306784  16.96742673394343  120.000000
6.95145  0.000000  0.000000  0.000000  -37.385010951147656  -0.24359072128079792  -14.038241825354435  49.928366237476745  14.540517055787976  12.215432279890111  48.8813404955373  7.990038347789647  -34.64686642128498  17.298273242589673  120.000000
7.008900000000001  0.000000  0.000000  0.000000  -37.51224554501751  -0.11785744527282199  -13.314760059871459  50.077746233396944  14.228156983805036  11.859787820070494  51.706823503353256  7.159423622672217  -36.56417117325568  17.462862104167257  120.000000
7.06635  0.000000  0.000000  0.000000  -37.58347799199049  -0.03491916639750038  -12.597250207068798  50.19351354719616  13.862623846512644  11.455177371235287  54.34530574358054  6.4290289997087715  -38.45547842681794  17.469861421466376  120.000000
7.1238  0.000000  0.000000  0.000000  -37.617294280924895  0.012553289946624606  -11.895440645525133  50.27686901580226  13.463717137173845  11.019863828681268  56.76363279736212  5.792995027376222  -40.295783525642925  17.37982108816508  120.000000
7.18125  0.000000  0.000000  0.000000  -37.636563528484615  0.03392347599019314  -11.2146524706112  50.32848662287308  13.051783888983469  10.566384697870678  58.909887737267866  5.251532611440193  -42.04375665169777  17.278091854120326  120.000000
7.2387  0.000000  0.000000  0.000000  -37.65973845197466  0.03961297699202671  -10.55796118910936  50.35429425455266  12.645577990608787  10.101599735107918  60.710241969307525  4.806841424430181  -43.629299069818565  17.23965321585598  120.000000
7.29615  0.000000  0.000000  0.000000  -37.69606096799141  0.036793244623071916  -9.926627512073273  50.36097610604306  12.257945202406447  9.633761401905872  62.072362481032584  4.454367854778899  -44.947565570016536  17.30137030216439  120.000000
7.3536  0.000000  0.000000  0.000000  -37.743608765788295  0.02858036769965597  -9.320948170968919  50.35274341009984  11.89441444000607  9.175564688828203  62.90987185796398  4.178386448499112  -45.88119538086436  17.456271987890954  120.000000
7.41105  0.000000  0.000000  0.000000  -37.79367186185018  0.01712452911879432  -8.742267805071961  50.33627412662538  11.556756293377806  8.73841288163095  63.162906486306106  3.958607829228488  -46.32893656515335  17.67046377769723  120.000000
7.468500000000001  0.000000  0.000000  0.000000  -37.83399960867421  0.006366192688792142  -8.194105760628501  50.3217840421172  11.245401938015105  8.328770154387236  62.81102089224441  3.775502532061451  -46.229141121465744  17.905959961814272  120.000000
7.52595  0.000000  0.000000  0.000000  -37.856799081499794  -0.0004090398851378712  -7.680999629249505  50.31616417061846  10.959301561458787  7.95075021051635  61.870468354501014  3.6124136019813418  -45.56578944408222  18.136619143043223  120.000000
7.5834  0.000000  0.000000  0.000000  -37.86280529213774  -0.0026714684028220277  -7.207113171862369  50.31998794988414  10.696615916975185  7.607803465771532  60.382869479383956  3.457179796735689  -44.361273234365996  18.353530004770136  120.000000
7.64085  0.000000  0.000000  0.000000  -37.858553509309715  -0.001699438082019015  -6.775526160062693  50.32988926578456  10.456171859719994  7.302369082588982  58.400067634725325  3.3022227823071675  -42.65920288079734  18.56029269395125  120.000000
7.6983  0.000000  0.000000  0.000000  -37.853118149647436  0.000716764485876221  -6.388142804188281  50.34188974498887  10.238504514717311  7.035076418191181  55.961775145097334  3.143959306219799  -40.49805757645365  18.764344249903345  120.000000
7.75575  0.000000  0.000000  0.000000  -37.85480753478946  0.003629123089495665  -6.0458734701107  50.35400297856539  10.046363327477208  6.80410853191504  53.0740568100871  2.982092381092763  -37.885676645729234  18.970154767515904  120.000000
7.8132  0.000000  0.000000  0.000000  -37.86977195964118  0.006182336159002239  -5.748951520802801  50.367298355600006  9.88392055349031  6.6059261993598986  49.715741311154424  2.8196787362573765  -34.80321207797201  19.17684675559264  120.000000
7.87065  0.000000  0.000000  0.000000  -37.90097755024427  0.00524474516947553  -5.497506643541741  50.38558745695228  9.755088434792176  6.436982640628261  45.87912329562422  2.6624275471764163  -31.243982878446666  19.380078703529975  120.000000
7.928100000000001  0.000000  0.000000  0.000000  -37.94858494397085  -0.005936344195314279  -5.291836390746619  50.4128867931387  9.662400127691205  6.295116305142417  41.603482568456684  2.5166190842640894  -27.246055841104802  19.57665605533529  120.000000
7.98555  0.000000  0.000000  0.000000  -38.00993232112876  -0.03741234202762044  -5.132378880297249  50.45099171300981  9.607050567853088  6.179533685047925  36.96887551344572  2.3867771629640515  -22.88517357798741  19.769065557811754  120.000000
